<svg width="31" height="34" viewBox="0 0 31 34" fill="none" xmlns="http://www.w3.org/2000/svg">
<g clip-path="url(#clip0_205_1852)">
<path d="M22.7942 6.64841C22.9546 6.48803 23.0347 6.29257 23.0347 6.06203C23.0347 5.83149 22.9546 5.63603 22.7942 5.47565L19.7871 2.46856C19.6267 2.30819 19.4312 2.228 19.2007 2.228C18.9702 2.228 18.7747 2.30819 18.6143 2.46856L0.962735 20.1202C0.802357 20.2805 0.722168 20.476 0.722168 20.7065C0.722168 20.9371 0.802357 21.1325 0.962735 21.2929L3.96982 24.3C4.1302 24.4604 4.32566 24.5406 4.5562 24.5406C4.78675 24.5406 4.98221 24.4604 5.14258 24.3C5.4032 24.0394 5.70892 23.864 6.05974 23.7738C6.41057 23.6835 6.75639 23.6835 7.09719 23.7738C7.43799 23.864 7.7387 24.0394 7.99931 24.3C8.25993 24.5606 8.43534 24.8663 8.52555 25.2172C8.61577 25.568 8.61577 25.9138 8.52555 26.2546C8.43534 26.5954 8.25993 26.8961 7.99931 27.1567C7.83894 27.3171 7.75875 27.5126 7.75875 27.7431C7.75875 27.9737 7.83894 28.1691 7.99931 28.3295L11.0064 31.3366C11.1668 31.497 11.3622 31.5771 11.5928 31.5771C11.8233 31.5771 12.0188 31.497 12.1792 31.3366L29.8308 13.685C29.9911 13.5246 30.0713 13.3292 30.0713 13.0986C30.0713 12.8681 29.9911 12.6726 29.8308 12.5122L26.8237 9.50514C26.6633 9.34476 26.4678 9.26458 26.2373 9.26458C26.0067 9.26458 25.8113 9.34476 25.6509 9.50514C25.3903 9.76576 25.0846 9.94117 24.7337 10.0314C24.3829 10.1216 24.0371 10.1216 23.6963 10.0314C23.3555 9.94117 23.0548 9.76576 22.7942 9.50514C22.5336 9.24453 22.3581 8.93881 22.2679 8.58798C22.1777 8.23716 22.1777 7.89134 22.2679 7.55054C22.3581 7.20973 22.5336 6.90903 22.7942 6.64841ZM9.71335 27.6679C10.1544 26.9462 10.3248 26.1594 10.2246 25.3074C10.1243 24.4554 9.77349 23.7287 9.17208 23.1272C8.57066 22.5258 7.84395 22.175 6.99194 22.0748C6.13993 21.9745 5.35308 22.1449 4.63138 22.586L2.73692 20.6915L7.1874 16.2711L16.0282 25.1119L11.6078 29.5624L9.71335 27.6679ZM26.1922 11.2192L28.0566 13.0836L17.2311 23.9392L8.36016 15.0683L19.2157 4.24274L21.0801 6.13721C20.6391 6.85891 20.4687 7.64576 20.5689 8.49777C20.6692 9.34978 21.02 10.0765 21.6214 10.6779C22.2228 11.2793 22.9495 11.6301 23.8015 11.7304C24.6536 11.8306 25.4404 11.6602 26.1621 11.2192H26.1922Z" fill="#1E1E1E"/>
</g>
<defs>
<clipPath id="clip0_205_1852">
<rect width="30.0709" height="33.5798" fill="white" transform="matrix(1 0 0 -1 0.360352 33.6914)"/>
</clipPath>
</defs>
</svg>
